<svg width="773" height="773" viewBox="0 0 773 773" fill="none" xmlns="http://www.w3.org/2000/svg">
<path d="M387 542L286 346.052L387 152L488 346.052L387 542Z" fill="#B91C00"/>
<path d="M564 492L488 345.29L564 200L640 345.29L564 492Z" fill="#001A71"/>
<path d="M210 492L134 345.29L210 200L286 345.29L210 492Z" fill="#001A71"/>
<path d="M306.608 637L314.8 653H296.88L288.688 637L269.104 598.6L249.52 637L241.328 653H223.408L231.6 637L269.104 563.4L306.608 637ZM363.502 563.4H381.422L373.23 579.4L335.726 653L298.222 579.4L290.03 563.4H307.95L316.142 579.4L335.726 617.8L355.31 579.4L363.502 563.4ZM440.108 637L448.3 653H430.38L422.188 637L402.604 598.6L383.02 637L374.828 653H356.908L365.1 637L402.604 563.4L440.108 637ZM456.025 563.4L500.697 563.528C525.401 563.528 545.497 583.496 545.497 608.2C545.497 619.208 541.529 629.32 534.873 637.128C534.105 638.024 533.209 638.92 532.313 639.816C524.249 648.008 513.113 653 500.825 653H456.025V563.4ZM471.897 579.528V637.128H500.697C516.569 637.128 529.497 624.2 529.497 608.328C529.497 592.456 516.569 579.528 500.697 579.528H471.897Z" fill="#001A71"/>
<path d="M511.4 693.276C513.56 694.716 515 697.164 515 699.972C515 704.4 511.4 708 506.972 708H489.8V682.8H505.676C509.42 682.8 512.48 685.86 512.48 689.604C512.48 690.972 512.084 692.232 511.4 693.276ZM494.3 687.3V691.908H505.712C506.972 691.908 508.016 690.864 508.016 689.604C508.016 688.344 506.972 687.3 505.712 687.3H494.3ZM506.972 703.5V703.464C508.916 703.464 510.5 701.88 510.5 699.936C510.5 697.992 508.916 696.408 506.972 696.408H494.3V703.5H506.972ZM535.644 682.764H541.296L531.54 695.4L531 696.084V707.964H526.5V696.156L525.888 695.4L516.132 682.764H521.82L528.732 691.728L535.644 682.764ZM516.096 708.072V708H516.168L516.096 708.072ZM541.296 708.072L541.26 708H541.296V708.072ZM562.468 682.836H587.632V687.336H577.3V708.036H572.8V687.336H562.468V682.836ZM598.065 687.3C596.805 687.3 595.761 688.344 595.761 689.604V691.944H611.961V696.444H595.761V701.196C595.761 702.456 596.805 703.5 598.065 703.5H616.461V708H598.065C594.321 708 591.297 704.94 591.297 701.196V689.604C591.297 685.86 594.321 682.8 598.065 682.8H616.461V687.3H598.065ZM642.014 703.5L644.318 708H639.278L636.974 703.5L631.466 692.7L625.958 703.5L623.654 708H618.614L620.918 703.5L631.466 682.8L642.014 703.5ZM667.191 686.256L671.691 682.8V708H667.191V691.944L662.763 695.328L659.091 698.172L655.419 695.328L650.991 691.944V708H646.491V682.8L650.991 686.256L659.091 692.484L667.191 686.256ZM718.027 690.324L717.991 690.432C717.991 692.448 717.199 694.284 715.903 695.616C717.199 696.948 717.991 698.784 717.991 700.8C717.991 704.904 714.679 708.216 710.575 708.216H692.827V703.716H710.575C712.195 703.716 713.527 702.384 713.527 700.764C713.527 699.18 712.303 697.884 710.755 697.812C710.719 697.812 710.683 697.812 710.647 697.812H697.363V693.312H710.647C710.683 693.312 710.719 693.312 710.755 693.312C712.303 693.24 713.563 691.944 713.563 690.36C713.563 688.74 712.231 687.408 710.611 687.408H692.863V682.908H710.611C714.715 682.908 718.027 686.22 718.027 690.324ZM737.532 687.3H729.756C727.74 687.3 726.084 688.956 726.084 690.972V699.864C726.084 701.88 727.74 703.536 729.756 703.536H737.532C739.548 703.536 741.204 701.88 741.204 699.864V690.972C741.204 688.956 739.548 687.3 737.532 687.3ZM729.756 682.8H737.532C742.032 682.8 745.668 686.436 745.668 690.936V699.828C745.668 704.328 742.032 707.964 737.532 707.964H729.756C725.256 707.964 721.62 704.328 721.62 699.828V690.936C721.62 686.436 725.256 682.8 729.756 682.8Z" fill="black"/>
</svg>
